<mxfile host="app.diagrams.net" modified="2021-04-28T09:27:35.434Z" agent="5.0 (Windows NT 10.0; Win64; x64) AppleWebKit/537.36 (KHTML, like Gecko) Chrome/90.0.4430.93 Safari/537.36" etag="0T3CIvTzL-8rqArnipZk" version="14.6.6" type="github">
  <diagram id="ydT8AY-6bHnPcXrUqyTA" name="Page-1">
    <mxGraphModel dx="2062" dy="1161" grid="1" gridSize="10" guides="1" tooltips="1" connect="1" arrows="1" fold="1" page="1" pageScale="1" pageWidth="827" pageHeight="1169" math="0" shadow="0">
      <root>
        <mxCell id="0" />
        <mxCell id="1" parent="0" />
        <mxCell id="ySzH5v4tyrvfcPFT4N7O-1" value="amoAccesser" style="rounded=0;whiteSpace=wrap;html=1;" vertex="1" parent="1">
          <mxGeometry x="134" y="260" width="560" height="130" as="geometry" />
        </mxCell>
        <mxCell id="ySzH5v4tyrvfcPFT4N7O-2" value="" style="shape=singleArrow;direction=south;whiteSpace=wrap;html=1;" vertex="1" parent="1">
          <mxGeometry x="396" y="390" width="36" height="70" as="geometry" />
        </mxCell>
        <mxCell id="ySzH5v4tyrvfcPFT4N7O-6" style="edgeStyle=orthogonalEdgeStyle;rounded=0;orthogonalLoop=1;jettySize=auto;html=1;exitX=0.5;exitY=1;exitDx=0;exitDy=0;" edge="1" parent="1" source="ySzH5v4tyrvfcPFT4N7O-17">
          <mxGeometry relative="1" as="geometry">
            <mxPoint x="268" y="190" as="targetPoint" />
            <mxPoint x="260" y="150" as="sourcePoint" />
            <Array as="points" />
          </mxGeometry>
        </mxCell>
        <mxCell id="ySzH5v4tyrvfcPFT4N7O-4" value="" style="shape=singleArrow;direction=south;whiteSpace=wrap;html=1;" vertex="1" parent="1">
          <mxGeometry x="250" y="190" width="36" height="70" as="geometry" />
        </mxCell>
        <mxCell id="ySzH5v4tyrvfcPFT4N7O-5" value="" style="shape=singleArrow;direction=south;whiteSpace=wrap;html=1;rotation=-180;" vertex="1" parent="1">
          <mxGeometry x="570" y="190" width="40" height="70" as="geometry" />
        </mxCell>
        <mxCell id="ySzH5v4tyrvfcPFT4N7O-7" value="" style="endArrow=classic;html=1;exitX=0.5;exitY=1;exitDx=0;exitDy=0;entryX=0;entryY=0;entryDx=0;entryDy=23.4;entryPerimeter=0;" edge="1" parent="1" source="ySzH5v4tyrvfcPFT4N7O-16" target="ySzH5v4tyrvfcPFT4N7O-4">
          <mxGeometry width="50" height="50" relative="1" as="geometry">
            <mxPoint x="170" y="190" as="sourcePoint" />
            <mxPoint x="260" y="180" as="targetPoint" />
          </mxGeometry>
        </mxCell>
        <mxCell id="ySzH5v4tyrvfcPFT4N7O-8" value="" style="endArrow=classic;html=1;exitX=0.5;exitY=1;exitDx=0;exitDy=0;" edge="1" parent="1" source="ySzH5v4tyrvfcPFT4N7O-18">
          <mxGeometry width="50" height="50" relative="1" as="geometry">
            <mxPoint x="160" y="220" as="sourcePoint" />
            <mxPoint x="270" y="190" as="targetPoint" />
            <Array as="points" />
          </mxGeometry>
        </mxCell>
        <mxCell id="ySzH5v4tyrvfcPFT4N7O-9" style="edgeStyle=orthogonalEdgeStyle;rounded=0;orthogonalLoop=1;jettySize=auto;html=1;exitX=0;exitY=0.5;exitDx=0;exitDy=0;exitPerimeter=0;" edge="1" parent="1">
          <mxGeometry relative="1" as="geometry">
            <mxPoint x="588" y="120" as="targetPoint" />
            <mxPoint x="588" y="190" as="sourcePoint" />
          </mxGeometry>
        </mxCell>
        <mxCell id="ySzH5v4tyrvfcPFT4N7O-10" value="" style="endArrow=classic;html=1;exitX=0;exitY=0.5;exitDx=0;exitDy=0;exitPerimeter=0;" edge="1" parent="1">
          <mxGeometry width="50" height="50" relative="1" as="geometry">
            <mxPoint x="588" y="190" as="sourcePoint" />
            <mxPoint x="540" y="130" as="targetPoint" />
          </mxGeometry>
        </mxCell>
        <mxCell id="ySzH5v4tyrvfcPFT4N7O-11" value="" style="endArrow=classic;html=1;exitX=0;exitY=0.5;exitDx=0;exitDy=0;exitPerimeter=0;" edge="1" parent="1">
          <mxGeometry width="50" height="50" relative="1" as="geometry">
            <mxPoint x="588" y="190" as="sourcePoint" />
            <mxPoint x="630" y="130" as="targetPoint" />
          </mxGeometry>
        </mxCell>
        <mxCell id="ySzH5v4tyrvfcPFT4N7O-12" value="valid" style="text;html=1;strokeColor=none;fillColor=none;align=center;verticalAlign=middle;whiteSpace=wrap;rounded=0;" vertex="1" parent="1">
          <mxGeometry x="570" y="100" width="40" height="20" as="geometry" />
        </mxCell>
        <mxCell id="ySzH5v4tyrvfcPFT4N7O-13" value="result" style="text;html=1;strokeColor=none;fillColor=none;align=center;verticalAlign=middle;whiteSpace=wrap;rounded=0;" vertex="1" parent="1">
          <mxGeometry x="620" y="110" width="40" height="20" as="geometry" />
        </mxCell>
        <mxCell id="ySzH5v4tyrvfcPFT4N7O-14" value="page fault&lt;br&gt;information" style="text;html=1;strokeColor=none;fillColor=none;align=center;verticalAlign=middle;whiteSpace=wrap;rounded=0;" vertex="1" parent="1">
          <mxGeometry x="510" y="100" width="60" height="40" as="geometry" />
        </mxCell>
        <mxCell id="ySzH5v4tyrvfcPFT4N7O-16" value="op1,op2" style="text;html=1;strokeColor=none;fillColor=none;align=center;verticalAlign=middle;whiteSpace=wrap;rounded=0;" vertex="1" parent="1">
          <mxGeometry x="200" y="110" width="40" height="20" as="geometry" />
        </mxCell>
        <mxCell id="ySzH5v4tyrvfcPFT4N7O-17" value="enable" style="text;html=1;strokeColor=none;fillColor=none;align=center;verticalAlign=middle;whiteSpace=wrap;rounded=0;" vertex="1" parent="1">
          <mxGeometry x="248" y="100" width="40" height="20" as="geometry" />
        </mxCell>
        <mxCell id="ySzH5v4tyrvfcPFT4N7O-18" value="stall" style="text;html=1;strokeColor=none;fillColor=none;align=center;verticalAlign=middle;whiteSpace=wrap;rounded=0;" vertex="1" parent="1">
          <mxGeometry x="300" y="110" width="40" height="20" as="geometry" />
        </mxCell>
        <mxCell id="ySzH5v4tyrvfcPFT4N7O-19" value="SRAM-LIKE INTERFACE" style="text;html=1;strokeColor=none;fillColor=none;align=center;verticalAlign=middle;whiteSpace=wrap;rounded=0;" vertex="1" parent="1">
          <mxGeometry x="356" y="460" width="116" height="40" as="geometry" />
        </mxCell>
      </root>
    </mxGraphModel>
  </diagram>
</mxfile>
